<svg viewBox="0 0 200 200" xmlns="http://www.w3.org/2000/svg">
  <!-- Split block - Blue side (rounded on left edge only) -->
  <path d="M 32 20 L 100 20 L 100 180 L 32 180 C 20.954 180 15 174.046 15 163 L 15 37 C 15 25.954 20.954 20 32 20 Z" fill="#1c71d8"/>
  
  <!-- Split block - Red side (rounded on right edge only) -->
  <path d="M 100 20 L 168 20 C 179.046 20 185 25.954 185 37 L 185 163 C 185 174.046 179.046 180 168 180 L 100 180 Z" fill="#a51d2d"/>
  
  <!-- Center divider line for emphasis -->
  <line x1="100" y1="20" x2="100" y2="180" stroke="#1e293b" stroke-width="5"/>
  
  <!-- Outer border with rounded corners for that gnome aesthetic -->
  <rect x="15" y="20" width="170" height="160" fill="none" stroke="#1e293b" stroke-width="5" rx="17"/>
  
  <!-- Blue side: 3 blocks at top -->
  <rect x="28" y="40" width="18" height="22" fill="#155db0" rx="3"/>
  <rect x="50" y="40" width="18" height="22" fill="#155db0" rx="3"/>
  <rect x="72" y="40" width="18" height="22" fill="#155db0" rx="3"/>
  
  <!-- Blue side: 1 block in middle -->
  <rect x="50" y="89" width="18" height="22" fill="#155db0" rx="3"/>
  
  <!-- Blue side: 2 blocks at bottom -->
  <rect x="39" y="138" width="18" height="22" fill="#155db0" rx="3"/>
  <rect x="61" y="138" width="18" height="22" fill="#155db0" rx="3"/>
  
  <!-- Red side: 3 blocks at top -->
  <rect x="110" y="40" width="18" height="22" fill="#7d1623" rx="3"/>
  <rect x="132" y="40" width="18" height="22" fill="#7d1623" rx="3"/>
  <rect x="154" y="40" width="18" height="22" fill="#7d1623" rx="3"/>
  
  <!-- Red side: 1 block in middle -->
  <rect x="132" y="89" width="18" height="22" fill="#7d1623" rx="3"/>
  
  <!-- Red side: 2 blocks at bottom -->
  <rect x="121" y="138" width="18" height="22" fill="#7d1623" rx="3"/>
  <rect x="143" y="138" width="18" height="22" fill="#7d1623" rx="3"/>
</svg>